<?xml version="1.0" encoding="utf-8"?>
<!-- Generator: Adobe Illustrator 24.1.0, SVG Export Plug-In . SVG Version: 6.00 Build 0)  -->
<svg version="1.1" xmlns="http://www.w3.org/2000/svg" xmlns:xlink="http://www.w3.org/1999/xlink" x="0px" y="0px"
	 viewBox="0 0 100 100" style="enable-background:new 0 0 100 100;" xml:space="preserve">
<style type="text/css">
	.st0{display:none;}
	.st1{display:inline;fill:none;stroke:#7F7F7F;stroke-miterlimit:10;}
	.st2{fill:#919191;}
	.st3{display:inline;}
	.st4{display:inline;fill:none;stroke:#000000;stroke-miterlimit:10;}
</style>
<g id="Capa_2" class="st0">
	<line class="st1" x1="20" y1="0" x2="20" y2="99.5"/>
	<line class="st1" x1="0" y1="0.4" x2="0" y2="99.9"/>
	<line class="st1" x1="40" y1="0" x2="40" y2="99.5"/>
	<line class="st1" x1="60" y1="0" x2="60" y2="99.5"/>
	<line class="st1" x1="80" y1="0" x2="80" y2="99.5"/>
	<line class="st1" x1="100" y1="0" x2="100" y2="99.5"/>
	<line class="st1" x1="99.8" y1="20" x2="0.3" y2="20"/>
	<line class="st1" x1="99.8" y1="0" x2="0.3" y2="0"/>
	<line class="st1" x1="99.8" y1="40" x2="0.3" y2="40"/>
	<line class="st1" x1="99.8" y1="60" x2="0.3" y2="60"/>
	<line class="st1" x1="99.8" y1="80" x2="0.3" y2="80"/>
	<line class="st1" x1="99.8" y1="100" x2="0.3" y2="100"/>
</g>
<g id="Capa_4">
	<rect x="20" y="60" width="20" height="40"/>
	<rect x="40" y="60" class="st2" width="20" height="40"/>
	<rect x="60" y="40" class="st2" width="20" height="40"/>
	<rect x="80" y="40" class="st2" width="20" height="40"/>
	<rect x="70" y="10" transform="matrix(-1.836970e-16 1 -1 -1.836970e-16 110.035 -50.035)" width="20" height="39.9"/>
	<rect x="40" y="40" width="20" height="20"/>
	<rect x="60" y="80" width="20" height="20"/>
	<rect x="80" y="60" width="20" height="20"/>
</g>
<g id="Ebene_1" class="st0">
	<path class="st3" d="M19.5,99.5h20c0-16.6,6.7-31.5,17.6-42.4C68,46.2,82.9,39.5,99.5,39.5v-20C55.3,19.5,19.5,55.3,19.5,99.5z
		 M59.5,99.5h20c0-11,9-20,20-20v-20C77.4,59.5,59.5,77.4,59.5,99.5z"/>
	<rect class="st4" width="100" height="100"/>
	<path class="st3" d="M361.6,84.9v20c16.6,0,31.5,6.7,42.4,17.6c10.9,10.9,17.6,25.8,17.6,42.4h20
		C441.6,120.7,405.8,84.9,361.6,84.9z M361.6,124.9v20c11,0,20,9,20,20h20C401.6,142.8,383.7,124.9,361.6,124.9z"/>
	<rect x="362.1" y="65.4" class="st4" width="100" height="100"/>
	<path class="st3" d="M301.1,165.3h-20c0,44.2,35.8,80,80,80v-20c-16.6,0-31.5-6.7-42.4-17.6C307.8,196.8,301.1,181.9,301.1,165.3z
		 M341.1,165.3h-20c0,22.1,17.9,40,40,40v-20C350.1,185.3,341.1,176.3,341.1,165.3z"/>
	<rect x="261.6" y="165.8" class="st4" width="100" height="100"/>
	<path class="st3" d="M421.8,165.5c0,16.6-6.7,31.5-17.6,42.4c-10.9,10.9-25.8,17.6-42.4,17.6v20c44.2,0,80-35.8,80-80
		C441.8,165.5,421.8,165.5,421.8,165.5z M401.9,165.5h-20c0,11-9,20-20,20v20C383.9,205.5,401.8,187.6,401.9,165.5z"/>
	<rect x="362.4" y="166" class="st4" width="100" height="100"/>
</g>
</svg>
