<?xml version="1.0" encoding="utf-8"?>
<!-- Generator: Adobe Illustrator 24.1.0, SVG Export Plug-In . SVG Version: 6.00 Build 0)  -->
<svg version="1.1" id="Ebene_1" xmlns="http://www.w3.org/2000/svg" xmlns:xlink="http://www.w3.org/1999/xlink" x="0px" y="0px"
	 viewBox="0 0 100 100" style="enable-background:new 0 0 100 100;" xml:space="preserve">
<style type="text/css">
	.st0{fill:#919191;}
</style>
<g>
	<rect x="40" y="60.1" transform="matrix(-1 -4.492907e-11 4.492907e-11 -1 100 160.16)" class="st0" width="20" height="40"/>
	<rect x="20" y="40.1" transform="matrix(-1 -4.483803e-11 4.483803e-11 -1 60 120.16)" class="st0" width="20" height="40"/>
	<rect x="0" y="40.1" transform="matrix(-1 -4.492907e-11 4.492907e-11 -1 20 120.16)" class="st0" width="20" height="40"/>
</g>
<rect x="10" y="10.1" transform="matrix(-1.836970e-16 1 -1 -1.836970e-16 50.08 10.08)" width="20" height="40"/>
<rect x="60" y="60.2" transform="matrix(-1 -1.224647e-16 1.224647e-16 -1 140 160.23)" width="20" height="39.9"/>
<rect x="40" y="40.1" transform="matrix(-1.836970e-16 1 -1 -1.836970e-16 100.08 8.000000e-02)" width="20" height="20"/>
<rect y="60.1" transform="matrix(-1.836970e-16 1 -1 -1.836970e-16 80.08 60.08)" width="20" height="20"/>
<rect x="20" y="80.1" transform="matrix(-1.836970e-16 1 -1 -1.836970e-16 120.08 60.08)" width="20" height="20"/>
</svg>
