<?xml version="1.0" encoding="utf-8"?>
<!-- Generator: Adobe Illustrator 24.1.0, SVG Export Plug-In . SVG Version: 6.00 Build 0)  -->
<svg version="1.1" id="Ebene_1" xmlns="http://www.w3.org/2000/svg" xmlns:xlink="http://www.w3.org/1999/xlink" x="0px" y="0px"
	 viewBox="0 0 100 100" style="enable-background:new 0 0 100 100;" xml:space="preserve">
<style type="text/css">
	.st0{fill:#919191;}
</style>
<g>
	<rect x="40" y="0" transform="matrix(-1 -1.224647e-16 1.224647e-16 -1 100 40)" class="st0" width="20" height="40"/>
	<rect x="20" y="20" transform="matrix(-1 -1.224647e-16 1.224647e-16 -1 60 80)" class="st0" width="20" height="40"/>
	<rect y="20" transform="matrix(-1 -1.224647e-16 1.224647e-16 -1 20 80)" class="st0" width="20" height="40"/>
</g>
<rect x="60" y="0" transform="matrix(-1 -1.224647e-16 1.224647e-16 -1 140 40)" width="20" height="40"/>
<rect x="10" y="50" transform="matrix(6.123234e-17 -1 1 6.123234e-17 -50.035 89.965)" width="20" height="39.9"/>
<rect x="40" y="40" transform="matrix(-1 -1.224647e-16 1.224647e-16 -1 100 100)" width="20" height="20"/>
<rect x="20" y="0" transform="matrix(-1 -1.224647e-16 1.224647e-16 -1 60 20)" width="20" height="20"/>
<rect y="20" transform="matrix(-1 -1.224647e-16 1.224647e-16 -1 20 60)" width="20" height="20"/>
</svg>
